<?xml version="1.0" encoding="UTF-8" standalone="no"?>
<svg
   xmlns:dc="http://purl.org/dc/elements/1.1/"
   xmlns:cc="http://creativecommons.org/ns#"
   xmlns:rdf="http://www.w3.org/1999/02/22-rdf-syntax-ns#"
   xmlns:svg="http://www.w3.org/2000/svg"
   xmlns="http://www.w3.org/2000/svg"
   xmlns:sodipodi="http://sodipodi.sourceforge.net/DTD/sodipodi-0.dtd"
   xmlns:inkscape="http://www.inkscape.org/namespaces/inkscape"
   width="367mm"
   height="419mm"
   viewBox="0 0 367 419"
   version="1.1"
   id="svg8"
   inkscape:version="1.0.1 (3bc2e813f5, 2020-09-07)"
   sodipodi:docname="welcomebg.svg">
  <defs
     id="defs2" />
  <sodipodi:namedview
     id="base"
     pagecolor="#ffffff"
     bordercolor="#666666"
     borderopacity="1.0"
     inkscape:pageopacity="0.0"
     inkscape:pageshadow="2"
     inkscape:zoom="0.175"
     inkscape:cx="1044.4789"
     inkscape:cy="890.34317"
     inkscape:document-units="mm"
     inkscape:current-layer="layer1"
     inkscape:document-rotation="0"
     showgrid="false"
     inkscape:window-width="1366"
     inkscape:window-height="715"
     inkscape:window-x="-8"
     inkscape:window-y="-8"
     inkscape:window-maximized="1"
     width="950mm"
     inkscape:showpageshadow="false" />
  <metadata
     id="metadata5">
    <rdf:RDF>
      <cc:Work
         rdf:about="">
        <dc:format>image/svg+xml</dc:format>
        <dc:type
           rdf:resource="http://purl.org/dc/dcmitype/StillImage" />
        <dc:title />
      </cc:Work>
    </rdf:RDF>
  </metadata>
  <g
     inkscape:label="Katman 1"
     inkscape:groupmode="layer"
     id="layer1">
    <g
       id="g20"
       transform="matrix(0.01199444,0,0,-0.01199444,2.5110926,309.32168)">
      <path
         d="M 0,0 H 30000 V 20000 H 0 Z"
         style="fill:#ffffff;fill-opacity:1;fill-rule:nonzero;stroke:none"
         id="path22" />
      <path
         d="m 26506.6,2575.2 -16507.5,-5.1 -6865.78,-2.2 h -122.47 c -87.7,57.5 -171.71,129.1 -252.3,213.1 -48.99,102 -93.03,201.1 -132.37,297.3 -85.41,209.1 -148.86,404.5 -193.29,588.5 -168.79,699.6 -62.18,1233.4 153.45,1714 519.95,1158.8 1674.46,2008.4 1133.94,4128.4 -224.24,879.4 -209.15,1739.3 -0.51,2555.7 492.68,1928.9 2065.36,3614.5 4113.08,4740.1 4028.65,2215.1 9896.35,2262.5 12997.05,-2270 2231.3,-3261.7 3880.5,-1505.3 6211.5,-4805.2 627.6,-888.5 924.8,-1760.9 1013.8,-2574 283,-2590.7 -1548.6,-4580.6 -1548.6,-4580.6"
         style="fill:#ebf3fa;fill-opacity:1;fill-rule:nonzero;stroke:none"
         id="path24" />
      <path
         d="M 26498.4,2525.6 H 2960.51 c -87.7,57.5 -121.37,171.4 -201.96,255.4 v 0 0 c 80.59,-84 164.6,-155.6 252.3,-213.1 h 122.47 l 6865.78,2.2 16507.5,5.1 c 0,0 1194.3,1297.6 1505.1,3161.2 C 27700,3857.9 26498.4,2525.6 26498.4,2525.6 M 2614.85,3106.3 c -78.96,196.5 -138.32,381 -180.66,555.2 42.36,-174.2 101.75,-358.7 180.66,-555.2 m -181.05,556.8 c -0.08,0.3 -0.17,0.7 -0.25,1 0.08,-0.3 0.17,-0.7 0.25,-1"
         style="fill:#c6d5ff;fill-opacity:1;fill-rule:nonzero;stroke:none"
         id="path26" />
      <path
         d="m 3133.32,2567.9 h -122.47 c -87.7,57.5 -171.71,129.1 -252.3,213.1 v 0 c -53.76,112 -101.53,220.4 -143.7,325.3 -78.91,196.5 -138.3,381 -180.66,555.2 -0.13,0.5 -0.26,1.1 -0.39,1.6 -0.08,0.3 -0.17,0.7 -0.25,1 -0.22,0.9 -0.44,1.8 -0.66,2.7 209.22,-44.2 447.85,-63.3 707.44,-63.3 829.56,0 1873.57,195.3 2859.07,390.6 985.42,195.4 1912.39,390.7 2507.74,390.7 119.77,0 226.05,-7.9 316.76,-25.3 116.4,-22.3 233.66,-32.6 351.17,-32.6 1326.83,0 2700.13,1316.3 3576.33,1568.2 123.2,35.5 250.2,50.8 379.2,50.8 406.9,0 834.1,-152.1 1228.6,-304.1 394.6,-152.1 756.4,-304.2 1032.4,-304.2 38,0 74.3,2.9 108.9,9 608.4,108.3 2023.9,2596.2 2368.4,2596.2 4.9,0 9.6,-0.5 14.1,-1.6 317.9,-73.1 841.5,-804.2 1178.1,-835.4 1.5,-0.2 3.1,-0.3 4.7,-0.3 240.2,0 1007.5,1619.2 1625.9,2787.6 v 0 c 57.4,-18.1 123.6,-32.9 184.6,-32.9 96.1,0 179.3,36.8 194.9,155.7 7.6,56.9 47.2,80.3 109.2,80.3 246.4,0 846.8,-369.3 1190.5,-464.2 46.3,-12.8 84.7,-18.6 116.6,-18.6 264.1,0 71.4,398.9 79.7,521.3 1,14.2 13.8,20.5 35.9,20.5 108.6,0 442.8,-153.2 712.1,-286.1 v 0 0 c -55.4,52.9 -111.7,106.5 -168.5,160.1 56.7,-53.6 113.1,-107.2 168.5,-160.1 h 0.1 c 465,-444.2 865.1,-844.1 919.6,-864 5.6,-2 11.6,-3 17.8,-3 59.8,0 144.9,91.5 244,193.1 l 0.9,0.9 c 0,0.1 0.1,0.1 0.1,0.2 6.5,5.6 41.9,33.7 105,33.7 35,0 78.6,-8.7 130.6,-34.7 123.7,-62 278.8,-101.7 384.3,-101.7 27.4,0 51.4,2.6 70.6,8.3 2.3,0.7 5.1,1 8.3,1 128.8,0 998.4,-516 1010.5,-523.2 v 0 l 0.1,-0.1 h 0.1 c 648.7,-503.7 1505.4,-1168.2 1804.6,-1395.5 13.9,-10.7 28.5,-20.1 43.4,-28.3 54.3,-497 30.5,-973.5 -43.5,-1419.4 -310.8,-1863.6 -1505.1,-3161.2 -1505.1,-3161.2 l -16507.5,-5.1 -6865.78,-2.2 M 26207,8579.8 h -0.1 v 0 h 0.1 v 0 m -34,26.4 c -20,15.5 -39.8,30.9 -59.3,46 3.6,-2.7 7.2,-5.5 10.8,-8.3 13.5,-10.5 27.1,-21.2 41,-31.8 2.5,-2 5,-4 7.5,-5.9 m -77.2,60 c -3.9,3 -7.8,6 -11.6,8.9 v 0 c 3.9,-2.9 7.7,-5.9 11.6,-8.9 m -34.4,26.6 c -5.6,4.4 -11.2,8.7 -16.7,13.1 h 0.1 c 5.5,-4.4 11,-8.7 16.6,-13.1 m -71.3,55.4 c -1.1,0.9 -2.2,1.7 -3.3,2.6 h 0.1 c 1.1,-0.9 2.2,-1.7 3.2,-2.6 m -30.5,23.8 c -35.6,27.6 -70,54.3 -103,80 0.9,-0.7 1.8,-1.4 2.8,-2.1 28.9,-22.6 59,-45.8 89.9,-69.9 3.4,-2.7 6.8,-5.3 10.3,-8 m -137.6,106.9 c -2.7,2.1 -5.3,4.1 -8,6.2 2.7,-2.1 5.3,-4.1 8,-6.2 m -86.8,67.4 c -3.4,2.7 -6.8,5.3 -10.2,7.9 1.2,-0.9 2.4,-1.7 3.5,-2.6 2.2,-1.8 4.5,-3.5 6.7,-5.3 m -32.2,25.1 c -11,8.5 -21.7,16.8 -32.1,24.9 9.1,-7 18.3,-14.2 27.8,-21.5 1.4,-1.1 2.8,-2.3 4.3,-3.4 m -70.7,55 c -0.6,0.4 -1.3,1 -1.9,1.5 0.6,-0.5 1.2,-1 1.9,-1.5 m -7.3,5.6 c -2.7,2.1 -5.4,4.2 -8.1,6.3 2.7,-2.1 5.4,-4.2 8.1,-6.3 m -12.2,9.5 c -8.1,6.3 -15.9,12.4 -23.6,18.3 l 0.6,-0.4 1.9,-1.4 c 1.8,-1.2 3.4,-2.6 5.2,-4 5.2,-4.1 10.5,-8.3 15.9,-12.5 m -49.8,38.7 c -2,1.6 -4.1,3.2 -6.1,4.8 l 0.3,-0.2 c 1.9,-1.5 3.9,-3 5.8,-4.6 m -24.9,19.4 c -13.8,10.7 -26.5,20.6 -38.2,29.7 11.1,-8.6 23.1,-18 36.2,-28.1 0.7,-0.5 1.3,-1.1 2,-1.6 m -101.6,79.1 c -0.2,0 -0.3,0.1 -0.4,0.2 h 0.1 l 0.3,-0.2 m -7,5.4 c -5,3.9 -8.9,6.9 -11.7,9.1 2.8,-2.1 6.6,-5.2 11.6,-9 l 0.1,-0.1 m -23.7,19.4 c -1.3,1.1 -2.7,2.4 -4.3,3.8 1.3,-1.1 2.5,-2.1 3.5,-3.1 l 0.8,-0.6 v -0.1 m -16.6,14.6 c -1,0.9 -2,1.7 -3,2.6 1,-0.9 2,-1.7 3,-2.6 m -26.3,22.2 c -4.9,4 -10,8.2 -15.5,12.6 5.5,-4.4 10.7,-8.6 15.5,-12.6 m -68.4,53.1 c -4.5,3.3 -9.1,6.7 -13.8,10 2.5,-1.7 4.9,-3.4 7.3,-5.1 2.2,-1.6 4.4,-3.3 6.5,-4.9 m -664.6,31 c 2.7,2.4 5.4,4.7 8.1,7 -2.7,-2.3 -5.4,-4.7 -8.1,-7 m 619.6,0.7 c -0.8,0.5 -1.5,1 -2.3,1.6 0.8,-0.6 1.5,-1.1 2.3,-1.6 m -6.7,4.5 c -4.3,2.8 -8.6,5.7 -13,8.5 1.6,-1 3.2,-2 4.8,-3 2.7,-1.8 5.5,-3.6 8.2,-5.5 m -589.4,14.8 c 5.1,4.3 10.2,8.5 15.4,12.6 -5.2,-4.2 -10.3,-8.3 -15.4,-12.6 m 47.5,37 c 1.4,1.1 2.8,2.1 4.3,3.1 -1.5,-1 -2.9,-2 -4.3,-3.1 m 418.9,19.6 c -11.9,5.9 -24,11.4 -36.1,16.7 4,-1.8 8,-3.5 12,-5.3 5.5,-2.4 10.8,-5 16.3,-7.5 2.5,-1.3 5.2,-2.6 7.8,-3.9 m -40.7,18.6 c -2.3,0.9 -4.5,1.9 -6.7,2.8 2.2,-0.9 4.4,-1.8 6.7,-2.8 m -34,13.3 c -2.4,0.8 -4.8,1.7 -7.2,2.5 2.4,-0.8 4.8,-1.6 7.2,-2.5 m -258,0.9 c 7.6,3.6 15.2,7 22.8,10 2.1,0.9 4.1,1.7 6.2,2.4 -2.1,-0.8 -4.2,-1.6 -6.2,-2.4 -7.6,-3.1 -15.2,-6.4 -22.8,-10 m 242.7,4.3 c -5.8,1.9 -11.6,3.7 -17.3,5.4 5.2,-1.5 10.3,-3.1 15.5,-4.7 0.6,-0.2 1.2,-0.4 1.8,-0.7 m -4274.2,575.2 c 9.2,17.3 18.4,34.5 27.6,51.5 -9.2,-17 -18.4,-34.2 -27.6,-51.5 m 2348,56.5 c -6.4,6.1 -12.8,12.1 -19.2,18.1 6.4,-6 12.8,-12 19.2,-18.1 m -89.2,83.6 c -31.2,29.2 -62.4,58.2 -93.6,87.1 31.2,-28.8 62.4,-57.9 93.6,-87.1 m -2154.3,53 c 9.3,17 18.6,33.8 27.7,50.5 10.6,19 21,37.8 31.4,56.4 -19.4,-34.8 -39.1,-70.5 -59.1,-106.9 m 1942.2,142.8 c -41.1,37.5 -82,74.3 -122.4,110.4 37.9,-33.8 76.3,-68.3 114.8,-103.4 2.5,-2.3 5.1,-4.6 7.6,-7 m -1790.6,126.9 c 11.8,20.3 23.4,40.2 34.9,59.8 0.5,0.9 1.1,1.7 1.6,2.5 -12,-20.3 -24.2,-41.1 -36.5,-62.3 m 1572.2,68.6 c -3.6,3.1 -7.3,6.3 -10.9,9.5 3.6,-3.2 7.3,-6.3 10.9,-9.5 m -1526.4,9.6 c 0.2,0.2 0.4,0.5 0.5,0.8 -0.1,-0.3 -0.3,-0.6 -0.5,-0.8 m 0.5,0.8 c 1.1,1.9 2.2,3.7 3.3,5.5 -1.1,-1.8 -2.2,-3.7 -3.3,-5.5 m 17.5,29.3 c 0.1,0.1 0.1,0.2 0.2,0.3 0.1,0.1 0.2,0.3 0.3,0.5 -0.2,-0.3 -0.3,-0.5 -0.5,-0.8 m 1453.9,7.8 c -10.6,9.1 -21,18.1 -31.4,27.1 5.8,-5 11.5,-9.9 17.4,-15 4.6,-4 9.3,-8 14,-12.1 m -1420.9,46.6 c 0.5,0.9 1.1,1.7 1.6,2.6 13.6,22.2 27,43.7 40.1,64.3 2.8,4.5 5.6,9 8.5,13.4 -16.4,-25.6 -33.1,-52.4 -50.2,-80.3 m 1366.1,0.5 c -25.1,21.4 -49.9,42.4 -74.3,62.8 16.1,-13.4 32.4,-27.1 48.8,-41 8.4,-7.2 17,-14.5 25.5,-21.8 m -1294.2,113.4 c 5.4,8.3 10.7,16.4 16,24.4 -5.3,-8 -10.6,-16.1 -16,-24.4 m 1139.2,16 c -3.4,2.7 -6.7,5.3 -10,8 2.2,-1.7 4.3,-3.5 6.5,-5.2 1.2,-1 2.3,-1.9 3.5,-2.8 m -1101.3,41 c 0.4,0.8 1,1.6 1.6,2.4 1.1,1.6 2.2,3.3 3.4,4.9 38.2,55.9 73.7,103.5 106.2,141.8 2.7,3.2 5.2,6.2 7.7,9.1 2.1,2.4 4.3,4.8 6.4,7.2 -37.6,-42.4 -79.6,-98.2 -125.3,-165.4 m 1025.2,19.6 c -2.8,2.2 -5.5,4.4 -8.3,6.6 1.7,-1.4 3.5,-2.8 5.3,-4.1 1,-0.9 2,-1.7 3,-2.5 m -59.8,46.2 c -4.9,3.6 -9.7,7.3 -14.5,10.9 4.8,-3.6 9.6,-7.3 14.5,-10.9 m -16.5,12.3 c -4.7,3.6 -9.4,7.1 -14.1,10.5 4.7,-3.4 9.4,-6.9 14.1,-10.5 m -27.3,20.3 c -0.7,0.5 -1.5,1.1 -2.2,1.6 0.7,-0.5 1.4,-1.1 2.2,-1.6 m -43.5,31.3 c -36.4,25.7 -70.7,48.6 -102.7,68.3 32,-19.6 66.3,-42.6 102.7,-68.3 m -749.9,38.9 c 0.9,1 1.9,2.1 2.8,3.1 -0.9,-1 -1.9,-2.1 -2.8,-3.1 m 41.2,42.3 c 5.6,5.3 11.2,10.5 16.7,15.3 -5.5,-4.9 -11.1,-10 -16.7,-15.3 m 575.5,5.3 c -4.9,2.8 -9.6,5.5 -14.3,8.2 0,0 0,0 0,0 h 0.1 c 4.6,-2.6 9.4,-5.3 14.2,-8.2 m -16.4,10.2 c -6.2,5.8 -25.9,23.7 -56.4,43.5 2.3,-1.4 4.3,-2.8 6.5,-4.3 26.7,-18 44.2,-33.8 49.9,-39.2 v 0 m -535.5,5.8 c 1.2,1 2.4,2.1 3.6,3.1 -1.2,-1.1 -2.4,-2.1 -3.6,-3.1 m 49.5,37.7 c 1.9,1.3 3.8,2.6 5.7,3.7 -1.9,-1.2 -3.8,-2.4 -5.7,-3.7 m 412.3,10.7 c -7.9,4.7 -16.4,9.4 -25.5,14 1.6,-0.7 3.2,-1.5 4.8,-2.4 7.3,-3.8 14.2,-7.7 20.7,-11.6 m -393.1,1.6 c 1.9,1.1 3.7,2.2 5.5,3.2 -1.8,-1.1 -3.6,-2.1 -5.5,-3.2 m 22.1,12.5 c 1.9,1 3.7,1.9 5.6,2.9 -1.9,-1 -3.8,-2 -5.6,-2.9 m 27.1,13.1 c 0.9,0.4 1.8,0.8 2.7,1.2 2.9,1.2 5.8,2.4 8.6,3.6 -3.7,-1.5 -7.5,-3.2 -11.3,-4.8 m 262.3,10.7 c -6.7,2.2 -13.6,4.4 -20.7,6.4 l 0.7,-0.2 c 6.9,-1.9 13.5,-4 20,-6.2 m -222.4,4.3 c 1.1,0.3 2.2,0.7 3.3,1 -1.1,-0.3 -2.2,-0.7 -3.3,-1 m 17,4.8 c 0.5,0.1 1,0.3 1.5,0.4 l 0.9,0.2 c -0.8,-0.2 -1.6,-0.4 -2.4,-0.6 m 172.5,0.5 c -0.1,0 -0.1,0 -0.2,0.1 h 0.1 l 0.1,-0.1 m -1.8,0.4 c -1.3,0.4 -2.6,0.7 -3.9,1 1.2,-0.3 2.4,-0.5 3.5,-0.8 l 0.4,-0.2 m -55.4,9 c -0.4,0.1 -0.8,0.1 -1.2,0.1 0.4,0 0.8,0 1.2,-0.1 m -21.8,1.2 c -0.7,0 -1.4,0 -2,0 0.6,0 1.3,0 2,0"
         style="fill:#c0d1fd;fill-opacity:1;fill-rule:nonzero;stroke:none"
         id="path28" />
      <path
         d="m 22487.5,9613.4 c -31.9,0 -70.3,5.8 -116.6,18.6 -343.7,94.9 -944.1,464.2 -1190.5,464.2 -62,0 -101.6,-23.4 -109.2,-80.3 -15.6,-118.9 -98.8,-155.7 -194.9,-155.7 -61,0 -127.2,14.8 -184.6,32.9 -0.1,0 -0.1,0 -0.1,0 21.5,40.7 42.9,80.7 64,120.2 9.2,17.3 18.4,34.5 27.6,51.5 26,48.3 51.7,95.6 76.9,141.6 20,36.4 39.7,72.1 59.1,106.9 31.6,56.6 62.5,110.9 92.5,162.8 12.3,21.2 24.5,42 36.5,62.3 3.1,5.3 6.2,10.6 9.3,15.9 0.2,0.2 0.4,0.5 0.5,0.8 0,0 0,0 0,0 1.1,1.8 2.2,3.7 3.3,5.5 4.8,8 9.5,16 14.2,23.8 0.2,0.3 0.3,0.5 0.5,0.8 11,18.2 21.8,36.2 32.5,53.6 17.1,27.9 33.8,54.7 50.2,80.3 7.3,11.4 14.5,22.6 21.7,33.6 5.4,8.3 10.7,16.4 16,24.4 7.4,11.1 14.7,22 21.9,32.6 45.7,67.2 87.7,123 125.3,165.4 1,1.1 2,2.1 2.9,3.2 0.9,1 1.9,2.1 2.8,3.1 3.6,3.9 7.1,7.8 10.7,11.5 9.2,9.8 18.5,19 27.7,27.7 5.6,5.3 11.2,10.4 16.7,15.3 2.3,2 4.6,4 6.9,6 1.2,1 2.4,2 3.6,3.1 15.5,12.9 30.8,24.4 45.9,34.6 1.9,1.3 3.8,2.5 5.7,3.7 4.5,3 9,5.8 13.5,8.6 1.9,1.1 3.7,2.1 5.5,3.2 5.5,3.2 11.1,6.3 16.6,9.3 1.8,0.9 3.7,1.9 5.6,2.9 7.2,3.7 14.4,7.1 21.5,10.2 3.8,1.6 7.6,3.3 11.3,4.8 9.7,3.8 19.2,7.2 28.6,10.2 1.1,0.3 2.2,0.7 3.3,1 4.6,1.4 9.1,2.6 13.7,3.8 0.8,0.2 1.6,0.4 2.4,0.6 29.2,7.4 57.4,10.5 84.3,10.5 1.6,0 3.2,0 4.8,0 0.6,0 1.3,0 2,0 6.9,-0.2 13.8,-0.5 20.6,-1.1 0.4,0 0.8,0 1.2,-0.1 17.9,-1.4 35.1,-4.3 51.5,-8 1.3,-0.3 2.6,-0.6 3.9,-1 0.6,-0.1 1.1,-0.2 1.6,-0.3 0.1,-0.1 0.1,-0.1 0.2,-0.1 4.1,-1 8.2,-2.1 12.2,-3.2 7.1,-2 14,-4.2 20.7,-6.4 20.4,-7 39.2,-15.2 56.1,-23.9 9.1,-4.6 17.6,-9.3 25.5,-14 6.1,-3.6 11.9,-7.2 17.3,-10.7 30.5,-19.8 50.2,-37.7 56.4,-43.5 1.2,-1.2 1.9,-1.8 2.1,-2 0,0 0,0 0,0 4.7,-2.7 9.4,-5.4 14.3,-8.2 9.9,-5.7 20.1,-11.8 30.5,-18.2 32,-19.7 66.3,-42.6 102.7,-68.3 13.5,-9.5 27.3,-19.4 41.3,-29.7 0.7,-0.5 1.5,-1.1 2.2,-1.6 4.4,-3.2 8.8,-6.5 13.2,-9.8 4.7,-3.4 9.4,-6.9 14.1,-10.5 0.7,-0.5 1.3,-1 2,-1.4 4.8,-3.6 9.6,-7.3 14.5,-10.9 16.8,-12.8 34,-26 51.5,-39.6 2.8,-2.2 5.5,-4.4 8.3,-6.6 21.6,-16.9 43.7,-34.5 66.1,-52.6 3.3,-2.7 6.6,-5.3 10,-8 26.3,-21.4 53.3,-43.7 80.7,-66.6 24.4,-20.4 49.2,-41.4 74.3,-62.8 7.8,-6.6 15.6,-13.3 23.4,-20 10.4,-9 20.8,-18 31.4,-27.1 14.4,-12.5 29,-25.2 43.6,-38 3.6,-3.2 7.3,-6.4 10.9,-9.5 31.6,-27.8 63.7,-56.2 96,-85.1 40.4,-36.1 81.3,-72.9 122.4,-110.4 39.3,-35.8 78.8,-72.1 118.5,-108.7 31.2,-28.9 62.4,-57.9 93.6,-87.1 23.4,-21.7 46.8,-43.6 70,-65.5 6.4,-6 12.8,-12 19.2,-18.1 14.4,-13.5 28.7,-27 43.1,-40.6 56.8,-53.6 113.1,-107.2 168.5,-160.1 -269.3,132.9 -603.5,286.1 -712.1,286.1 -22.1,0 -34.9,-6.3 -35.9,-20.5 -8.3,-122.4 184.4,-521.3 -79.7,-521.3"
         style="fill:#f4f9fd;fill-opacity:1;fill-rule:nonzero;stroke:none"
         id="path30" />
      <path
         d="m 26207.1,8579.6 c 0,0 0,0.1 -0.1,0.1 -12.1,7.2 -881.7,523.2 -1010.5,523.2 -3.2,0 -6,-0.3 -8.3,-1 -19.2,-5.7 -43.2,-8.3 -70.6,-8.3 -105.5,0 -260.6,39.7 -384.3,101.7 -52,26 -95.6,34.7 -130.6,34.7 -63.1,0 -98.5,-28.1 -105,-33.7 0,-0.1 -0.1,-0.1 -0.1,-0.2 41.9,43.1 86.3,87.8 132.3,128.3 2.7,2.3 5.4,4.7 8.1,7 5.1,4.4 10.2,8.7 15.4,13 5.1,4.3 10.2,8.4 15.4,12.6 10.6,8.5 21.3,16.6 32.1,24.4 1.4,1.1 2.8,2.1 4.3,3.1 26.9,19.3 54.3,36.1 81.9,49.3 7.6,3.6 15.2,6.9 22.8,10 2,0.8 4.1,1.6 6.2,2.4 27.5,10.1 56.5,14.6 86.4,14.6 35.9,0 72.9,-6.5 110,-17.3 5.7,-1.7 11.5,-3.5 17.3,-5.4 2.7,-0.8 5.4,-1.8 8.1,-2.7 2.4,-0.8 4.8,-1.7 7.2,-2.5 9.1,-3.3 18.2,-6.8 27.3,-10.5 2.2,-0.9 4.4,-1.9 6.7,-2.8 1.5,-0.6 3,-1.3 4.6,-1.9 12.1,-5.3 24.2,-10.8 36.1,-16.7 38.7,-18.9 75.9,-40.7 110,-62.9 4.4,-2.8 8.7,-5.7 13,-8.5 1.5,-1 2.9,-2 4.4,-2.9 0.8,-0.6 1.5,-1.1 2.3,-1.6 10.8,-7.3 21.2,-14.5 31.2,-21.7 4.7,-3.3 9.3,-6.7 13.8,-10 19.7,-14.3 37.5,-28.1 52.9,-40.5 5.5,-4.4 10.6,-8.6 15.5,-12.6 8.8,-7.3 16.6,-13.8 23.3,-19.6 1,-0.9 2,-1.7 3,-2.6 4.8,-4.1 8.9,-7.7 12.3,-10.8 1.6,-1.4 3,-2.7 4.3,-3.8 4.6,-4.2 7,-6.5 7,-6.5 0,0 1.7,-1.3 5,-3.8 2.8,-2.2 6.7,-5.2 11.7,-9.1 2,-1.6 4.2,-3.3 6.6,-5.2 0.1,-0.1 0.2,-0.2 0.4,-0.2 14.7,-11.5 36.1,-28.2 63.4,-49.4 11.7,-9.1 24.4,-19 38.2,-29.7 6.1,-4.7 12.3,-9.6 18.8,-14.6 2,-1.6 4.1,-3.2 6.1,-4.8 8.4,-6.5 17.2,-13.3 26.2,-20.4 7.7,-5.9 15.5,-12 23.6,-18.3 1.4,-1.1 2.7,-2.1 4.1,-3.2 2.7,-2.1 5.4,-4.2 8.1,-6.3 1.8,-1.4 3.6,-2.8 5.4,-4.1 0.6,-0.5 1.3,-1.1 1.9,-1.5 12.4,-9.7 25.3,-19.7 38.6,-30.1 10.4,-8.1 21.1,-16.4 32.1,-24.9 7.2,-5.6 14.6,-11.4 22,-17.2 3.4,-2.6 6.8,-5.2 10.2,-7.9 25.2,-19.5 51.5,-40 78.8,-61.2 2.7,-2.1 5.3,-4.1 8,-6.2 11.4,-8.8 22.9,-17.8 34.6,-26.9 33,-25.7 67.4,-52.4 103,-80 9,-7 18.1,-14.1 27.2,-21.2 1.1,-0.9 2.2,-1.7 3.3,-2.6 18,-13.9 36.1,-28 54.6,-42.3 5.5,-4.4 11.1,-8.7 16.7,-13.1 7.6,-5.8 15.2,-11.7 22.8,-17.7 3.8,-2.9 7.7,-5.9 11.6,-8.9 5.9,-4.7 11.9,-9.3 17.9,-14 19.5,-15.1 39.3,-30.5 59.3,-46 11.2,-8.8 22.6,-17.6 33.9,-26.4 v 0 h 0.1 l 0.1,-0.2"
         style="fill:#f4f9fd;fill-opacity:1;fill-rule:nonzero;stroke:none"
         id="path32" />
      <path
         d="m 16551.5,15731.3 c 0,195 158.1,353.1 353.2,353.1 195,0 353.2,-158.1 353.2,-353.1 0,-195.1 -158.2,-353.2 -353.2,-353.2 -195.1,0 -353.2,158.1 -353.2,353.2"
         style="fill:#f8fbff;fill-opacity:1;fill-rule:nonzero;stroke:none"
         id="path34" />
      <path
         d="m 15217.3,13879.6 c 0,0 268.9,380.2 912,337.9 0,0 933.6,633.6 1929.2,84.5 0,0 1058.3,136.1 1842,-117.8 522.6,-169.3 695.2,-346.8 695.2,-346.8 l -5378.4,42.2"
         style="fill:#f8fcff;fill-opacity:1;fill-rule:nonzero;stroke:none"
         id="path36" />
      <path
         d="m 11958.9,16842.1 c 0,0 192,334.6 651.2,297.4 0,0 666.8,557.7 1377.7,74.4 0,0 755.8,119.7 1315.5,-103.7 373.2,-149 496.4,-305.2 496.4,-305.2 l -3840.8,37.1"
         style="fill:#f8fcff;fill-opacity:1;fill-rule:nonzero;stroke:none"
         id="path38" />
      <path
         d="M 10027.3,2523.9 H 3204.01 c -23.73,13.8 -47.34,28.5 -70.69,44 -182.25,121.3 -351.16,295.2 -507.14,510.4 -85.41,209.1 -148.87,404.5 -193.28,588.5 -168.8,699.6 -62.19,1233.4 153.43,1714 606.77,169.2 1458.47,699.5 3011.99,349.2 2294.94,-517.4 2079.95,-2191.3 3048.92,-2321.9 813.38,-109.8 1233.58,-658.2 1347.67,-831.6 1.4,-2.1 2.92,-4.3 4.19,-6.4 19,-29.2 28.2,-46.2 28.2,-46.2"
         style="fill:#9bcc8f;fill-opacity:1;fill-rule:nonzero;stroke:none"
         id="path40" />
      <path
         d="m 6949.42,2520.8 c -27.16,-34.6 -2288.21,-25 -3689.7,-8.7 -18.66,9.6 -347.3,-1.2 -362.67,13.5 -592.25,566.6 -520.2,1728.1 -547.36,1791.3 371.85,27.5 644.66,-369.1 1012.58,-735.6 693.95,-691 1861.03,-81.9 2423.12,-280.7 562.09,-198.9 377.69,-480.1 744.72,-552.2 366.9,-72.1 458.53,-177.4 419.31,-227.6"
         style="fill:#8ebf83;fill-opacity:1;fill-rule:nonzero;stroke:none"
         id="path42" />
      <path
         d="m 19038.5,5894.8 v -310.7 h -602.9 c -60.7,0 -110,45 -110,100.5 v 121.5 c 0,101.3 89.9,183.4 200.7,183.4 h 408.5 c 57.3,0 103.7,-42.4 103.7,-94.7"
         style="fill:#ff9f57;fill-opacity:1;fill-rule:nonzero;stroke:none"
         id="path44" />
      <path
         d="m 19315.9,5758.7 v -174.6 h -880.3 c -60.7,0 -110,45 -110,100.5 v 74.1 h 990.3"
         style="fill:#ff9f57;fill-opacity:1;fill-rule:nonzero;stroke:none"
         id="path46" />
      <path
         d="m 19006.8,5424.8 168.6,259.8 h 5813.3 l 62.5,-259.8 -1664.7,-982.3 h -3136.3 l -1243.4,982.3"
         style="fill:#ffa969;fill-opacity:1;fill-rule:nonzero;stroke:none"
         id="path48" />
      <path
         d="m 20034.7,6915.1 c 551.5,38.5 2354.1,142.3 4080.2,0 95,-7.9 183,-56.9 243.6,-135.5 168.2,-218.1 506.5,-686.2 630.2,-1073.6 22.2,-69.3 -25.6,-141.5 -94.1,-141.5 h -5631 c -68.4,0 -114.7,74.5 -88.2,141.9 85.5,218 276,651.5 571.7,1047.8 70.6,94.5 174.8,153.1 287.6,160.9"
         style="fill:#f99746;fill-opacity:1;fill-rule:nonzero;stroke:none"
         id="path50" />
      <path
         d="m 24754.1,5564.5 v 0 c -11.5,-5.5 -24.3,-8.6 -38,-8.6 h -5273.7 c -35.9,0 -65.3,21.9 -79.8,52.2 -11.5,23.9 -13.8,53 -2.9,80.8 80.1,204.1 258.5,610 535.5,981.2 66,88.5 163.7,143.4 269.3,150.8 516.5,35.9 2204.8,133.1 3821.4,-0.1 89,-7.3 171.3,-53.2 228.2,-126.9 157.5,-204.2 474.3,-642.7 590.1,-1005.4 16.3,-51.1 -7.8,-103.8 -50.1,-124"
         style="fill:#8eadf4;fill-opacity:1;fill-rule:nonzero;stroke:none"
         id="path52" />
      <path
         d="m 25136.9,5584.1 h 607.7 c 58.1,0 105.1,47 105.1,105.1 v 108.5 c 0,105.9 -85.9,191.8 -191.9,191.8 H 25236 c -54.7,0 -99.1,-44.3 -99.1,-99 v -306.4"
         style="fill:#ff9f57;fill-opacity:1;fill-rule:nonzero;stroke:none"
         id="path54" />
      <path
         d="m 25136.9,5758.7 h -277.4 v -174.6 h 277.4 v 174.6"
         style="fill:#ff9f57;fill-opacity:1;fill-rule:nonzero;stroke:none"
         id="path56" />
      <path
         d="m 18569.7,4442.5 c 0,0 -109.4,593.7 437.1,982.3 0,0 1488.9,142.3 1869.1,-982.3 h -2306.2"
         style="fill:#ffa969;fill-opacity:1;fill-rule:nonzero;stroke:none"
         id="path58" />
      <path
         d="m 25488.3,4442.5 c 0,0 109.4,593.7 -437.1,982.3 0,0 -1488.9,142.3 -1869.1,-982.3 h 2306.2"
         style="fill:#ffa969;fill-opacity:1;fill-rule:nonzero;stroke:none"
         id="path60" />
      <path
         d="m 19627,2463.1 h -622.2 c -95.2,0 -172.3,77.1 -172.3,172.3 V 3464 c 0,95.2 77.1,172.3 172.3,172.3 h 622.2 c 95.2,0 172.3,-77.1 172.3,-172.3 v -828.6 c 0,-95.2 -77.1,-172.3 -172.3,-172.3"
         style="fill:#233862;fill-opacity:1;fill-rule:nonzero;stroke:none"
         id="path62" />
      <path
         d="m 25164.3,2463.1 h -622.2 c -95.1,0 -172.3,77.1 -172.3,172.3 V 3464 c 0,95.2 77.2,172.3 172.3,172.3 h 622.2 c 95.2,0 172.4,-77.1 172.4,-172.3 v -828.6 c 0,-95.2 -77.2,-172.3 -172.4,-172.3"
         style="fill:#233862;fill-opacity:1;fill-rule:nonzero;stroke:none"
         id="path64" />
      <path
         d="M 25497.3,4442.5 V 3085.3 c 0,-140.9 -124.9,-255.1 -279,-255.1 h -1600.1 c -57,0 -109.3,18.2 -150.4,48.5 -26,19 -47.4,42.9 -62.9,70.1 -34.7,61.2 -102.2,100.9 -177.5,100.9 h -2424.1 c -99.8,0 -172.7,-46.3 -227.2,-122.8 -36.8,-51.8 -74.9,-99.7 -163.8,-96.7 h -1580.2 c -144.9,0 -262.5,107.5 -262.5,240 v 1372.3 h 6927.7"
         style="fill:#ffa969;fill-opacity:1;fill-rule:nonzero;stroke:none"
         id="path66" />
      <path
         d="m 25294.8,5046.6 v -414.7 c 0,-56.6 -50.2,-102.5 -112.2,-102.5 h -1510 c -51.4,0 -82.3,52.2 -54,91.5 l 152.3,211.9 c 111.4,155 297.6,251.6 500.4,259.6 l 929.4,36.6 c 51.3,2.1 94.1,-35.4 94.1,-82.4"
         style="fill:#f9ddbf;fill-opacity:1;fill-rule:nonzero;stroke:none"
         id="path68" />
      <path
         d="m 20547.4,4529.4 h -1510.1 c -62,0 -112.2,45.9 -112.2,102.5 v 414.7 c 0,47 42.8,84.5 94.2,82.4 l 77.7,-3.1 523.9,-20.6 90.9,-3.6 236.9,-9.3 c 150.6,-5.9 292,-60.8 400.5,-152.1 37.6,-31.6 71.2,-67.6 99.9,-107.5 l 152.3,-211.9 c 28.2,-39.3 -2.6,-91.5 -54,-91.5"
         style="fill:#f9ddbf;fill-opacity:1;fill-rule:nonzero;stroke:none"
         id="path70" />
      <path
         d="m 19643.6,3474.1 h -755 c -31,0 -56.1,-22.9 -56.1,-51.3 v -207.3 c 0,-23.5 21.4,-42.2 47,-41.2 l 38.9,1.5 261.9,10.3 45.5,1.8 118.4,4.7 c 75.3,3 146.1,30.4 200.3,76.1 18.8,15.8 35.6,33.8 49.9,53.7 l 76.2,106 c 14.1,19.6 -1.3,45.7 -27,45.7"
         style="fill:#f9ddbf;fill-opacity:1;fill-rule:nonzero;stroke:none"
         id="path72" />
      <path
         d="m 24463.8,3474.1 h 755.1 c 31,0 56.1,-22.9 56.1,-51.3 v -207.3 c 0,-23.5 -21.4,-42.2 -47.1,-41.2 l -38.9,1.5 -261.9,10.3 -45.5,1.8 -118.4,4.7 c -75.3,3 -146,30.4 -200.2,76.1 -18.8,15.8 -35.7,33.8 -50,53.7 l -76.1,106 c -14.2,19.6 1.2,45.7 26.9,45.7"
         style="fill:#f9ddbf;fill-opacity:1;fill-rule:nonzero;stroke:none"
         id="path74" />
      <path
         d="m 20797.3,4963.8 h 2465.2 c 38.5,0 64,-38.9 47.7,-72.9 l -122.4,-255.5 c -31,-64.7 -97.6,-106 -170.9,-106 h -1952.3 c -66.7,0 -128.2,35.2 -160.6,92 l -152.3,267 c -19.3,33.8 5.8,75.4 45.6,75.4"
         style="fill:#f49453;fill-opacity:1;fill-rule:nonzero;stroke:none"
         id="path76" />
      <path
         d="m 23138.3,3564 h -2093.5 c -40.8,0 -73.9,33.1 -73.9,73.9 v 272.2 c 0,40.8 33.1,73.9 73.9,73.9 h 2093.5 c 40.9,0 73.9,-33.1 73.9,-73.9 v -272.2 c 0,-40.8 -33,-73.9 -73.9,-73.9"
         style="fill:#f9ddbf;fill-opacity:1;fill-rule:nonzero;stroke:none"
         id="path78" />
      <path
         d="m 20350.2,4915.3 c 0,-177.5 -157.5,-321.5 -351.7,-321.5 -194.3,0 -351.8,144 -351.8,321.5 0,69.5 24.1,133.8 65.1,186.4 l 236.9,-9.3 c 150.6,-5.9 292,-60.8 400.5,-152.1 0.6,-8.3 1,-16.6 1,-25"
         style="fill:#fff3e9;fill-opacity:1;fill-rule:nonzero;stroke:none"
         id="path80" />
      <path
         d="m 19626.1,5057.2 c 0,-136.3 -120.9,-246.7 -269.9,-246.7 -149,0 -269.8,110.4 -269.8,246.7 0,23.9 3.7,46.9 10.6,68.7 l 523.9,-20.6 c 3.4,-15.6 5.2,-31.6 5.2,-48.1"
         style="fill:#fff3e9;fill-opacity:1;fill-rule:nonzero;stroke:none"
         id="path82" />
      <path
         d="m 23871.1,4915.3 c 0,-177.5 157.5,-321.5 351.7,-321.5 194.3,0 351.7,144 351.7,321.5 0,69.5 -24,133.8 -65,186.4 l -236.9,-9.3 c -150.6,-5.9 -292,-60.8 -400.5,-152.1 -0.6,-8.3 -1,-16.6 -1,-25"
         style="fill:#fff3e9;fill-opacity:1;fill-rule:nonzero;stroke:none"
         id="path84" />
      <path
         d="m 24595.2,5057.2 c 0,-136.3 120.8,-246.7 269.9,-246.7 149,0 269.8,110.4 269.8,246.7 0,23.9 -3.7,46.9 -10.6,68.7 l -523.9,-20.6 c -3.4,-15.6 -5.2,-31.6 -5.2,-48.1"
         style="fill:#fff3e9;fill-opacity:1;fill-rule:nonzero;stroke:none"
         id="path86" />
      <path
         d="m 23467.8,2878.7 c -26,19 -47.4,42.9 -62.9,70.1 -34.7,61.2 -102.2,100.9 -177.5,100.9 h -2424.1 c -99.8,0 -172.7,-46.3 -227.2,-122.8 0,0 54.3,396.4 331.5,397.3 277.2,0.9 2274.6,0 2274.6,0 0,0 252.6,-7.7 285.6,-445.5"
         style="fill:#233862;fill-opacity:1;fill-rule:nonzero;stroke:none"
         id="path88" />
      <path
         d="m 24754.1,5561.3 v 0 c -11.5,-3.5 -24.3,-5.4 -38,-5.4 h -5273.7 c -35.9,0 -65.3,13.8 -79.8,32.9 0,0 79.4,31.5 199.1,34.7 119.6,3.2 4949.4,0 4949.4,0 0,0 218.6,-8.5 243,-62.2"
         style="fill:#ffa969;fill-opacity:1;fill-rule:nonzero;stroke:none"
         id="path90" />
      <path
         d="m 4580.75,6506.1 c 0,0 -241.14,-2528.9 -444.2,-3098.3 l 517.2,-77.7 c 0,0 612.31,2617.6 751.92,3023.7 0,0 -279.21,253.8 -824.92,152.3"
         style="fill:#f99746;fill-opacity:1;fill-rule:nonzero;stroke:none"
         id="path92" />
      <path
         d="m 14449.1,12087.2 c 0,0 1051.1,-1006.6 1558.8,-1034.8 507.6,-28.3 896.8,-36.7 896.8,-36.7 v -194.6 c 0,0 -739.8,-236.4 -1472.2,-132.6 -146.5,20.8 -1159.1,572.6 -1159.1,572.6 l 175.7,826.1"
         style="fill:#ffb27d;fill-opacity:1;fill-rule:nonzero;stroke:none"
         id="path94" />
      <path
         d="m 14207.8,13765 c 0,0 -604.1,725.9 -924,261.4 0,0 -238.5,-99 -324.8,-505.1 -88.1,-414.3 187.5,-729.3 329.9,-651.4 91.4,49.9 160.6,-110 160.6,-110 l 758.3,1005.1"
         style="fill:#233862;fill-opacity:1;fill-rule:nonzero;stroke:none"
         id="path96" />
      <path
         d="m 11813.6,9219.2 c 16.8,-40.7 89.7,-76.9 194.7,-103 235.3,-58.5 632.1,-66.2 921.5,41 310.3,114.9 535.4,1755.1 631.1,2595.7 33.4,293.2 51.1,489.3 51.1,489.3 0,0 -178.3,279 -868.2,186 -689.8,-93 -759.6,-325.6 -821.6,-744.1 -62.1,-418.6 -162.8,-2333.1 -108.6,-2464.9"
         style="fill:#466aa5;fill-opacity:1;fill-rule:nonzero;stroke:none"
         id="path98" />
      <path
         d="m 12008.3,9116.2 c 235.3,-58.5 632.1,-66.2 921.5,41 310.3,114.9 535.4,1755.1 631.1,2595.7 -81.7,289.3 -146.6,479.6 -146.6,479.6 0,0 -866.2,104.7 -1034.8,-157 -150.8,-233.9 -334.1,-2486.1 -371.2,-2959.3"
         style="fill:#163560;fill-opacity:1;fill-rule:nonzero;stroke:none"
         id="path100" />
      <path
         d="m 13349.8,14100 c 0,0 -81.2,324.9 -558.4,223.4 0,0 228.5,28.8 291.1,-59.2 0,0 -181.1,82.9 -294.4,13.5 -113.4,-69.4 -132,-302.9 -115.1,-374 16.9,-71 142.1,-282.5 225,-282.5 83,0 181.1,72.7 181.1,72.7 l 270.7,406.1"
         style="fill:#233862;fill-opacity:1;fill-rule:nonzero;stroke:none"
         id="path102" />
      <path
         d="m 12635.8,9015.2 c 237.3,532.1 350.8,682.6 354.7,850 3.2,132.4 -62.1,275.2 -188.9,625.5 -29.9,82.6 -50.5,167.4 -63.2,253.2 -85.9,578.6 -7,1329 282.8,1423.7 76.2,24.9 215.4,24.2 250.1,31.3 67.6,17.9 182,261.8 180.6,654.8 l 30.4,-6 511.1,-101.2 c 0,0 -11.7,-160.9 -12,-312.4 -0.3,-126.2 7.3,-245.9 35.9,-261 36.8,-3.3 58.5,-5.5 58.5,-5.5 0,0 426.1,-591.8 461.9,-1142.1 35.9,-550.4 -341.2,-789.5 2.9,-1889.4 351.3,-1123.3 -2035.9,-414.9 -1904.8,-120.9"
         style="fill:#ffb27d;fill-opacity:1;fill-rule:nonzero;stroke:none"
         id="path104" />
      <path
         d="m 13993.4,12746.5 c 0,0 -11.7,-160.9 -12,-312.4 -286,8.1 -437.1,269 -499.1,413.6 l 511.1,-101.2"
         style="fill:#e8945b;fill-opacity:1;fill-rule:nonzero;stroke:none"
         id="path106" />
      <path
         d="m 13429.5,12903.3 c 0,0 -149.8,236.8 -185.8,439.3 -25.7,144.5 48,680.4 586.4,603.2 0,0 156.4,-15.4 303.4,-114.7 116.9,-79 285.6,-249.4 97,-717 l -49,-157.9 -752,-52.9"
         style="fill:#233862;fill-opacity:1;fill-rule:nonzero;stroke:none"
         id="path108" />
      <path
         d="m 14088.9,12603 c 0,0 -676.6,-11.1 -677.1,410.3 -0.5,421.5 -88.1,703.9 343.9,728.8 431.9,25 516.1,-135.7 550.4,-276.4 34.4,-140.6 -41.2,-848.9 -217.2,-862.7"
         style="fill:#ffb27d;fill-opacity:1;fill-rule:nonzero;stroke:none"
         id="path110" />
      <path
         d="m 14063.8,13752.5 c 0,0 -185.2,-494.5 -469.5,-567.6 -284.3,-73.1 -407.7,3 -407.7,3 0,0 218.1,173.3 263.4,475.7 0,0 474.1,324.2 613.8,88.9"
         style="fill:#233862;fill-opacity:1;fill-rule:nonzero;stroke:none"
         id="path112" />
      <path
         d="m 14017.9,13712.3 c 0,0 138.4,-110.4 172.1,-217.7 33.7,-107.3 48.9,-328.3 113.3,-320.7 0,0 139.6,336 -17.3,526.2 -166.3,201.6 -268.1,12.2 -268.1,12.2"
         style="fill:#233862;fill-opacity:1;fill-rule:nonzero;stroke:none"
         id="path114" />
      <path
         d="m 13234.9,3909.2 c 170.2,-677.1 426.5,-1196.3 426.5,-1196.3 l 223.1,15.5 c 0,0 -109.4,520.6 -103.1,1223.9 4.4,491.7 65.2,1072.8 259.5,1627.6 667.6,1906.7 559.7,3294.4 559.7,3294.4 l -1255.5,-146.8 -58.5,-6.9 c -5.2,-576.6 -20.1,-1359.4 -33.1,-1971.6 -11.5,-550.5 -21.6,-962.9 -21.6,-962.9 -241.4,-519.9 -153.7,-1253.6 3,-1876.9"
         style="fill:#ed7d2b;fill-opacity:1;fill-rule:nonzero;stroke:none"
         id="path116" />
      <path
         d="m 12514.6,4017.4 c 72.2,-770.4 390.1,-1268.6 390.1,-1268.6 l 106.5,-77.5 c 0,0 100.9,542.8 172.3,1188.5 68,613.8 161.3,1263.3 266.7,1461.5 418.7,786.2 544.8,3754.3 544.8,3754.3 l -1273,63.1 c -128,-215.2 -183.8,-568.2 -197,-969.6 -33.5,-1012.9 204.6,-2333.7 240.2,-2524.8 l 0.1,-0.4 c 2.8,-14.8 -1.5,-29.3 -8.4,-42.7 -253.2,-501.4 -289.8,-1074.9 -242.3,-1583.8"
         style="fill:#f99746;fill-opacity:1;fill-rule:nonzero;stroke:none"
         id="path118" />
      <path
         d="m 14043.6,13695.6 c 0,0 -132,-517.8 -490.7,-683.6 0,0 358.7,318.1 389.2,659.9 30.4,341.8 101.5,23.7 101.5,23.7"
         style="fill:#233862;fill-opacity:1;fill-rule:nonzero;stroke:none"
         id="path120" />
      <path
         d="m 12476.2,8631.1 c -2.2,-42.9 0.2,-77.2 8,-101.8 27,-85.2 120.1,-124 344.9,-100.8 137.5,14.3 198.7,244.6 226,441.1 82.6,-281.1 198.2,-438.9 347.6,-472 218,-48.5 1317.7,-182.2 1389.6,340.5 79.2,575 -157.9,1593.1 -170.9,2142 32.3,194.6 43.4,363.5 39.9,508.6 -9.2,391.1 -123.9,610.2 -212.2,698.5 -25,19.2 -50,31.1 -150.3,48.3 -51.3,8.8 -122.3,18.9 -223,32.1 0,0 -41.1,4.7 -40.2,3.1 18.6,-33.2 221.6,-364.3 202.2,-461.2 -20.4,-101.5 -687.5,-116.4 -783.7,-12.7 -56.2,60.5 -292.1,495.7 -292.1,495.7 0,0 -312.8,-34.2 -465.8,-145.4 0,0 0.6,-0.7 1.7,-2 -18.5,-13.3 -32.4,-27.3 -40.3,-42.3 -61.1,-116.4 -99.8,-576.9 -125.1,-1123.1 -8.1,-174.3 42,-873.7 36.4,-1057 -23.9,-776.9 -85.2,-1043 -92.7,-1191.6"
         style="fill:#f9ddbf;fill-opacity:1;fill-rule:nonzero;stroke:none"
         id="path122" />
      <path
         d="m 13532.9,2525.9 h 142.4 c 47.7,7.5 83,21.3 131.9,27.7 74.3,9.7 108.5,-20.7 115.3,-27.7 1,-1 1.4,-1.5 1.4,-1.5 h 605.1 c 15.2,21.8 0.6,72.1 -13.7,109.2 -9.7,25.2 -30.7,44.2 -56.7,51.8 -64.1,18.5 -190.7,35.1 -306.5,140 -65.2,58.8 -314.7,216.5 -314.7,216.5 l -1.4,0.3 c -5.4,-0.1 -31.5,-8.1 -145,-103.9 -58.7,-49.5 -158.7,69.8 -158.7,69.8 0,0 -18.8,-15.5 -32.8,-44.5 -11.3,-22.8 -19.5,-54.2 -13,-92.9 9,-54.5 -20.1,-155.8 -43.4,-224.3 -14.1,-41.6 -26,-71 -26,-71 0,0 -6.8,-34.2 115.8,-49.5"
         style="fill:#142644;fill-opacity:1;fill-rule:nonzero;stroke:none"
         id="path124" />
      <path
         d="m 12772.7,2525.9 h 142.5 c 47.7,7.5 82.9,21.3 131.9,27.7 74.3,9.7 108.5,-20.7 115.3,-27.7 0.9,-1 1.3,-1.5 1.3,-1.5 h 605.1 c 15.3,21.8 0.6,72.1 -13.7,109.2 -9.6,25.2 -30.6,44.2 -56.6,51.8 -64.2,18.5 -190.7,35.1 -306.5,140 -65.2,58.8 -314.8,216.5 -314.8,216.5 l -1.3,0.3 c -5.5,-0.1 -31.6,-8.1 -145.1,-103.9 -58.7,-49.5 -158.7,69.8 -158.7,69.8 0,0 -18.7,-15.5 -32.8,-44.5 -11.2,-22.8 -19.5,-54.2 -13,-92.9 9.1,-54.5 -20.1,-155.8 -43.3,-224.3 -14.1,-41.6 -26,-71 -26,-71 0,0 -6.8,-34.2 115.7,-49.5"
         style="fill:#233862;fill-opacity:1;fill-rule:nonzero;stroke:none"
         id="path126" />
      <path
         d="m 13939.2,12844.5 c 0,0 32.2,-70.6 107.6,-73.8 75.3,-3.1 100.7,1.6 111,16.7 10.3,15.1 19.8,42 29.4,57.1 0,0 -115.1,20.6 -248,0"
         style="fill:#ffffff;fill-opacity:1;fill-rule:nonzero;stroke:none"
         id="path128" />
      <path
         d="m 12697.9,12045.1 c 0,0 -1107.3,-1132.9 -1065,-1520.5 42.3,-387.5 962.7,-1307.4 962.7,-1307.4 l 81.1,239.2 c 0,0 -520.6,1053.8 -476.2,1110.9 44.4,57.1 645.1,431.5 702.2,533 57.1,101.5 -204.8,944.8 -204.8,944.8"
         style="fill:#ffb27d;fill-opacity:1;fill-rule:nonzero;stroke:none"
         id="path130" />
      <path
         d="m 12676.7,9456.4 c 0,0 328.8,33.7 359.2,0 30.4,-33.8 151.9,-296.2 55.7,-303.8 -96.2,-7.6 -206.9,93.9 -251.5,72.3 -44.7,-21.7 -126.3,-104.1 -217.1,-47.7 -28.4,17.6 -51.1,71.9 -94.6,108.7 l 148.3,170.5"
         style="fill:#ffb27d;fill-opacity:1;fill-rule:nonzero;stroke:none"
         id="path132" />
      <path
         d="m 12676.7,9456.4 c 0,0 127.9,38.8 163.4,67.5 35.5,28.7 45.6,-53.5 -28.7,-78.8 -74.2,-25.3 -134.7,11.3 -134.7,11.3"
         style="fill:#ffb27d;fill-opacity:1;fill-rule:nonzero;stroke:none"
         id="path134" />
      <path
         d="m 17271.2,10847.5 h -0.1 c -16.5,-11.8 -38.3,-20.9 -67.1,-26.4 -134.8,-25.4 -299.3,0 -299.3,0 v 194.5 c 0,0 57.1,42.4 82.5,76.2 25.4,33.9 69.8,144.9 69.8,144.9 65.9,-5.6 10.3,-146.7 43.6,-151.5 16.7,-2.3 69.1,2.3 118.1,-2 h 0.2 c 49,-4.2 94.4,-17.3 97.2,-54.9 4.1,-58.1 15.8,-137.3 -44.9,-180.8"
         style="fill:#ffb27d;fill-opacity:1;fill-rule:nonzero;stroke:none"
         id="path136" />
      <path
         d="m 17271.2,10847.5 h -0.1 c -128.6,-23.4 -222.6,111 -221.5,165 1,53.9 169.1,70.7 169.1,70.7 h 0.2 c 49,-4.2 94.4,-17.3 97.2,-54.9 4.1,-58.1 15.8,-137.3 -44.9,-180.8"
         style="fill:#ef9f6a;fill-opacity:1;fill-rule:nonzero;stroke:none"
         id="path138" />
      <path
         d="m 14368.8,12121.6 c 0,0 104.2,-10.2 293.1,-183.7 188.9,-173.4 633.4,-548.3 633.4,-548.3 0,0 -110.1,-480.2 -673.9,-509.5 l -252.6,1241.5"
         style="fill:#f9ddbf;fill-opacity:1;fill-rule:nonzero;stroke:none"
         id="path140" />
      <path
         d="m 14075.8,12167.6 c 0,0 0.4,-0.8 1.4,-2.3 30,-47.4 499.2,-797.5 544.2,-1285.2 32.3,194.6 43.4,363.5 39.9,508.6 -60.3,184.3 -206.8,593.7 -362.5,746.8 -19.6,19.3 -223,32.1 -223,32.1"
         style="fill:#466aa5;fill-opacity:1;fill-rule:nonzero;stroke:none"
         id="path142" />
      <path
         d="m 12716.6,12060.9 c 0,0 -136.4,-84.9 -307.7,-265.8 -171.4,-180.8 -453.8,-558.4 -453.8,-558.4 0,0 171.5,-498.8 750,-548.2 578.4,-49.3 265.3,555.6 265.3,555.6 l -253.8,816.8"
         style="fill:#f9ddbf;fill-opacity:1;fill-rule:nonzero;stroke:none"
         id="path144" />
      <path
         d="m 12821.3,12249.9 c 0,0 378,-229 424.5,-1124.2 46.6,-895.3 -676.9,-1303 -676.9,-1303 l -6.9,275.5 c 0,0 604.3,534.3 433.8,1247.5 -170.5,713.1 -426.9,865.9 -426.9,865.9 l 252.4,38.3"
         style="fill:#466aa5;fill-opacity:1;fill-rule:nonzero;stroke:none"
         id="path146" />
      <path
         d="m 7084.71,15618.5 c 334.41,-540.8 626.94,-665.2 176.4,-1140.7 -526.04,-555.2 127.68,-1085.6 -564.24,-1529.3 -469.07,-300.8 -782.92,-95.7 -1536.77,-598.5 -497.62,-331.9 -1093.09,-326.8 -1440.32,-285.1 492.67,1928.9 2065.36,3614.5 4113.07,4740.1 167.78,-928.5 -1093.34,-628.5 -748.14,-1186.5"
         style="fill:#9bcc8f;fill-opacity:1;fill-rule:nonzero;stroke:none"
         id="path148" />
      <path
         d="m 16331.1,2524.4 h -852.9 c -45.7,38.8 31.6,126.8 112.4,132.8 35.1,2.6 79.5,-4.7 130.2,-15.5 11.7,155.9 78.8,856.7 331.3,828.5 284.1,-31.5 0,-308.6 -80.2,-472.6 -59.5,-121.5 -122.3,-295.8 -150.9,-378 23,-5 46.9,-9.9 71.3,-14.4 37.6,115.6 177.7,504.4 355.8,481.7 209.1,-26.5 125.1,-182.4 -23.1,-274.9 -108.8,-68 -242.3,-164.7 -305.8,-211.5 53.8,-8.7 109.9,-14.7 166.8,-13.3 146.1,3.4 217.4,-39.6 245.1,-62.8"
         style="fill:#82b378;fill-opacity:1;fill-rule:nonzero;stroke:none"
         id="path150" />
      <path
         d="m 11495.3,2568.2 c -48.8,76.8 -195.8,276 -391.7,249.6 -213.3,-28.7 235.7,-169.4 373.1,-250.2 -30.5,-0.4 -56.7,2.1 -76,8.9 -91.9,32.8 -249.3,-30 -299.6,-52.1 h 874.9 c -6.1,21 -21.8,55.1 -62.6,80 -14.4,8.8 -43.2,10 -80.5,7.2 52,61.3 88.1,257.2 -56.7,206.8 -105.8,-36.8 -105.5,-156.5 -95.1,-227.3 -22.5,-3.6 -45.3,-7.1 -67.9,-10.3 -43.5,221.9 -197.6,872.6 -509.9,889.9 -316.6,17.6 268.5,-674.7 463.3,-896.2 -25,-3 -49,-5.2 -71.3,-6.3"
         style="fill:#82b378;fill-opacity:1;fill-rule:nonzero;stroke:none"
         id="path152" />
      <path
         d="m 4033.16,4136.7 h -567.13 c 0,0 -124.58,-22.8 -175.7,-445.4 -51.12,-422.7 -200.34,-1175.7 -200.34,-1175.7 h 752.08 l 191.09,1621.1"
         style="fill:#163560;fill-opacity:1;fill-rule:nonzero;stroke:none"
         id="path154" />
      <path
         d="m 3649.62,2515.6 c 65.66,8.5 3056.06,0 3056.06,0 0,0 120.93,19 13.37,593.5 -5.37,28.9 -8.83,59.6 -10.62,91.7 -9.55,156.5 15.4,343.1 6.68,493.2 0,0 38.33,480.9 -534.69,441 -573.01,-39.9 -1617.56,-43.7 -2011.5,2.1 -393.95,45.7 -483.48,-297.2 -465.58,-512.5 2.87,-34.6 1.8,-86.8 -1.79,-150.1 -19.1,-331.3 -107.08,-965.9 -51.93,-958.9"
         style="fill:#1c468a;fill-opacity:1;fill-rule:nonzero;stroke:none"
         id="path156" />
      <path
         d="m 4536.54,3939 c 1.91,3.5 198.1,358 523.06,379.8 328.65,22.2 656.61,-339 659.87,-342.6 l 70.5,78.9 c -14.61,16.4 -362.45,400.3 -736.35,375.2 -377.98,-25.4 -593.46,-417 -602.45,-433.6 l 85.37,-57.7"
         style="fill:#1c468a;fill-opacity:1;fill-rule:nonzero;stroke:none"
         id="path158" />
      <path
         d="m 7418.97,4829.7 c 3.13,120 -56.49,231.7 -157.08,297.3 -163.15,106.4 -441.22,231.9 -823.56,207.6 -645.36,-41 -788.77,-399.5 -809.26,-676.1 -20.49,-276.5 -235.6,-676.1 -286.82,-983.4 -51.22,-307.3 -136.79,-1089.1 320.32,-1150.4 457.12,-61.4 1989.21,0 1989.21,0 0,0 356.95,418.4 0,1222.1 -211.74,476.8 -238.25,873.6 -232.81,1082.9"
         style="fill:#ed7d2b;fill-opacity:1;fill-rule:nonzero;stroke:none"
         id="path160" />
      <path
         d="m 7730.73,4829.7 c 3.13,120 -56.49,231.7 -157.08,297.3 -163.15,106.4 -441.22,231.9 -823.56,207.6 -645.36,-41 -788.77,-399.5 -809.26,-676.1 C 5920.34,4382 5705.22,3982.4 5654,3675.1 5602.78,3367.8 5517.21,2586 5974.33,2524.7 c 457.12,-61.4 1989.21,0 1989.21,0 0,0 356.94,418.4 0,1222.1 -211.74,476.8 -238.26,873.6 -232.81,1082.9"
         style="fill:#f99746;fill-opacity:1;fill-rule:nonzero;stroke:none"
         id="path162" />
      <path
         d="m 5886.2,3562.5 h 915.1 c 0,0 61.47,-669.3 -375.6,-689.8 -437.07,-20.5 -553.16,259.5 -539.5,689.8"
         style="fill:#ed7d2b;fill-opacity:1;fill-rule:nonzero;stroke:none"
         id="path164" />
      <path
         d="m 5886.2,3562.5 c 0,0 157.07,-239.1 443.89,-232.2 286.83,6.8 471.21,232.2 471.21,232.2 h -915.1"
         style="fill:#f99746;fill-opacity:1;fill-rule:nonzero;stroke:none"
         id="path166" />
      <path
         d="m 6987.05,3562.5 h 915.11 c 0,0 61.46,-669.3 -375.61,-689.8 -437.06,-20.5 -553.16,259.5 -539.5,689.8"
         style="fill:#ed7d2b;fill-opacity:1;fill-rule:nonzero;stroke:none"
         id="path168" />
      <path
         d="m 6987.05,3562.5 c 0,0 157.07,-239.1 443.9,-232.2 286.82,6.8 471.21,232.2 471.21,232.2 h -915.11"
         style="fill:#f99746;fill-opacity:1;fill-rule:nonzero;stroke:none"
         id="path170" />
      <path
         d="M 7123.98,4079.8 H 6637.4 c -225.36,0 -409.74,184.3 -409.74,409.7 0,225.4 184.38,409.8 409.74,409.8 h 486.58 c 225.37,0 409.76,-184.4 409.76,-409.8 0,-225.4 -184.39,-409.7 -409.76,-409.7"
         style="fill:#ed7d2b;fill-opacity:1;fill-rule:nonzero;stroke:none"
         id="path172" />
      <path
         d="m 6265.21,4932.6 c 0,0 217.73,-331.3 615.33,-321.8 397.59,9.4 653.2,321.8 653.2,321.8 H 6265.21"
         style="fill:#f99746;fill-opacity:1;fill-rule:nonzero;stroke:none"
         id="path174" />
      <path
         d="m 7220.98,5243.1 -122.28,12.4 c 0,0.2 4.96,66 -38.26,115.4 -33.29,38 -88.51,59.3 -164.06,62.8 -71.55,3.5 -128.37,-12.2 -165.02,-46.9 -51.7,-48.8 -52.98,-123.1 -52.98,-123.9 l -122.93,-0.5 c 0,5.1 0.17,126.2 89.96,212.3 61.78,59.5 148.37,85 256.89,81.9 111.24,-5.4 196.07,-41.3 252.26,-106.6 77.46,-90.1 66.9,-202.3 66.42,-206.9"
         style="fill:#f99746;fill-opacity:1;fill-rule:nonzero;stroke:none"
         id="path176" />
      <path
         d="m 9384.48,12705.1 c 0,0 1739.12,176.1 1891.42,450.4 152.3,274.3 659.9,1416.5 659.9,1416.5 l 260.2,-95.2 c 0,0 -191.8,-1619.8 -602.8,-1977.7 -411.1,-357.8 -1831.49,-764.8 -1831.49,-764.8 l -377.23,970.8"
         style="fill:#ffb27d;fill-opacity:1;fill-rule:nonzero;stroke:none"
         id="path178" />
      <path
         d="m 12196,14476.8 c 0,0 207.3,452 126.9,502.8 -80.3,50.7 -319.3,6.3 -333.1,-132.2 -13.7,-138.6 206.2,-370.6 206.2,-370.6"
         style="fill:#ffb27d;fill-opacity:1;fill-rule:nonzero;stroke:none"
         id="path180" />
      <path
         d="m 9188.24,12840 1663.96,111.1 c 0,0 121.3,-437.9 -98.7,-979.3 l -913.78,-237.5 -651.48,1105.7"
         style="fill:#f9ddbf;fill-opacity:1;fill-rule:nonzero;stroke:none"
         id="path182" />
      <path
         d="m 7094.87,11734.3 c 0,0 -609.85,25.9 -698.68,-304 -88.84,-330 -228.45,-1964 0,-2213.1 228.44,-249 1452.11,-175.6 1452.11,-175.6 l -753.43,2692.7"
         style="fill:#f99746;fill-opacity:1;fill-rule:nonzero;stroke:none"
         id="path184" />
      <path
         d="m 9134.17,12788.6 c 0,0 -20.94,-231.9 -60.41,-578.6 C 8990,11473.4 8822.1,10217.6 8591.5,9561.1 8510.79,9331.5 8422.45,9175.3 8327.4,9140 c -244.31,-90.5 -553.34,-111.7 -811.47,-91.4 -103.44,8.3 -198.75,23.3 -278.45,43.1 -124.12,30.8 -210.29,73.6 -230.09,121.7 -64.09,155.9 54.95,2420.2 128.44,2915.1 73.22,495.1 103.3,783.6 925.82,817.3 966.68,39.8 1072.52,-157.2 1072.52,-157.2"
         style="fill:#f99746;fill-opacity:1;fill-rule:nonzero;stroke:none"
         id="path186" />
      <path
         d="m 8807.5,11100.3 c 0,0 -127.42,-914.9 -216,-1539.2 -80.71,-229.6 -169.05,-385.8 -264.1,-421.1 -244.31,-90.5 -553.34,-111.7 -811.47,-91.4 -356.12,424.4 -70.7,3330.7 63.96,3574.6 136.68,247.5 975.57,174.7 975.57,174.7 l 252.04,-1697.6"
         style="fill:#ed7d2b;fill-opacity:1;fill-rule:nonzero;stroke:none"
         id="path188" />
      <path
         d="M 10667.1,2523.9 H 9361.91 c -93.5,63.4 25.23,683.4 25.23,683.4 0,0 356.21,135.2 417.73,-139.7 61.71,-274.7 453.73,-362 661.13,-395.5 142,-23.1 186.9,-101.1 201.1,-148.2"
         style="fill:#233862;fill-opacity:1;fill-rule:nonzero;stroke:none"
         id="path190" />
      <path
         d="M 8658.56,2523.9 H 7353.41 c -93.51,63.4 25.23,683.4 25.23,683.4 0,0 356.21,135.2 417.73,-139.7 61.71,-274.7 453.71,-362 661.17,-395.5 141.97,-23.1 186.83,-101.1 201.02,-148.2"
         style="fill:#233862;fill-opacity:1;fill-rule:nonzero;stroke:none"
         id="path192" />
      <path
         d="m 10315.9,8848.9 c 0,0 -58.6,-731.9 -127.6,-1611.7 -93.7,-1195.1 -346.47,-4158.3 -346.47,-4158.3 0,0 -165.71,-141.4 -532.75,-64 0,0 -312.42,1022.2 -405.85,2188.9 -1.45,19.1 -2.9,38.4 -4.34,57.7 -86.91,1187.7 -222.05,3688.8 -222.05,3688.8 l 1639.06,-101.4"
         style="fill:#2b478b;fill-opacity:1;fill-rule:nonzero;stroke:none"
         id="path194" />
      <path
         d="M 9822.8,9272.8 7877.94,3058 c 0,0 -119.32,-37.4 -335.4,0 -206.23,35.8 -249.51,89.2 -249.51,89.2 0,0 -71.92,2252.8 339.35,2980.3 230.01,406.9 -47.6,3020.2 578.5,3308.7 772.07,355.7 1611.92,-163.4 1611.92,-163.4"
         style="fill:#2b478b;fill-opacity:1;fill-rule:nonzero;stroke:none"
         id="path196" />
      <path
         d="m 10452.5,8418.2 c 0,0 -1450.88,-586.9 -2642.9,51.7 -22.73,12.2 -17.6,67.1 -14.14,92.8 231.19,1709.6 -0.32,3691.6 149.72,3983.1 110.74,215.2 796.37,350.3 1326.27,271.5 0,0 597.92,-133 728.95,-271.5 45.2,-47.7 310.6,-314.3 315.5,-635.8 6.8,-448.3 136.6,-3491.8 136.6,-3491.8"
         style="fill:#f9ddbf;fill-opacity:1;fill-rule:nonzero;stroke:none"
         id="path198" />
      <path
         d="m 9339.7,12683.7 c -372.27,-202.2 -727.62,21.2 -696.46,130.9 22.77,80.1 89.66,137.4 32.95,552.7 -0.76,5.5 40.38,-2.2 102.54,-16.9 184.93,-43.8 556.71,-149.3 573.17,-154 h 0.63 c 0,0 4.56,-87.3 19.88,-243.9 1.26,-13.8 2.66,-28.2 4.17,-43.1 1.9,-18.4 2.58,-38.1 6.08,-57.9 22.38,-126.7 -42.96,-167.8 -42.96,-167.8"
         style="fill:#ffb27d;fill-opacity:1;fill-rule:nonzero;stroke:none"
         id="path200" />
      <path
         d="m 9372.41,12952.5 c -276.08,-63.3 -688.12,344.3 -688.12,344.3 30.13,22.4 61.77,40.1 94.44,53.6 184.93,-43.8 556.71,-149.3 573.17,-154 h 0.63 c 0,0 4.56,-87.3 19.88,-243.9"
         style="fill:#ed975d;fill-opacity:1;fill-rule:nonzero;stroke:none"
         id="path202" />
      <path
         d="m 9466.21,13218.5 c 0,0 -113.53,-40.7 -258.26,-60.2 -211.66,-28.6 -489.97,-11.7 -577.4,244.4 -147.27,431 -335.38,689.4 97.98,865.4 231.99,94.3 380.41,99.3 481.21,63.3 87.58,-31 139.22,-93 178.31,-154.3 84.16,-132 253.45,-883.1 78.16,-958.6"
         style="fill:#ffb27d;fill-opacity:1;fill-rule:nonzero;stroke:none"
         id="path204" />
      <path
         d="m 9420.88,14437.4 c 97.88,-23.8 141.93,-178 48.75,-242.1 -167.04,-115 -371.2,-69.9 -446.41,-103.3 -107.78,-47.9 -127.15,-228.7 -129.08,-286.1 -1.94,-57.5 -9.5,-105.9 -155.87,-71.5 -23.98,5.6 -41.27,3.9 -53.15,-3.2 -60.72,-36 16.87,-210.6 40.27,-248.4 0,0 33.68,-125.1 -41.05,-186 -9.05,-7.3 -155.87,-71.5 -509.68,470 -55.61,85 -108.71,276.5 -22.82,460.8 85.78,184.4 351.09,412.7 669.47,412.7 251.9,0 392.42,-152.6 599.57,-202.9"
         style="fill:#163560;fill-opacity:1;fill-rule:nonzero;stroke:none"
         id="path206" />
      <path
         d="m 9469.49,13496.8 c 0,0 9.08,-55.8 -120.66,-100.3 0,0 -108.92,-37.4 -128.81,19.8 0,0 86.52,82.4 249.47,80.5"
         style="fill:#ffffff;fill-opacity:1;fill-rule:nonzero;stroke:none"
         id="path208" />
      <path
         d="M 8880.87,5516 9428,8011.2 8840.38,6133.5 Z"
         style="fill:#233862;fill-opacity:1;fill-rule:nonzero;stroke:none"
         id="path210" />
      <path
         d="m 13637.4,14849.2 -2751.6,-244 -130.1,1467.2 2751.6,244.1 130.1,-1467.3"
         style="fill:#f9ddbf;fill-opacity:1;fill-rule:nonzero;stroke:none"
         id="path212" />
      <path
         d="m 11935.8,14572 c 0,0 -53.9,113.6 -72.9,186.5 -19,73 9.5,295.1 57.1,263.4 47.6,-31.8 9.5,-146 69.8,-174.5 60.3,-28.6 150.7,-66.7 181.7,-142.8 30.9,-76.2 24.5,-227.8 24.5,-227.8 l -260.2,95.2"
         style="fill:#ffb27d;fill-opacity:1;fill-rule:nonzero;stroke:none"
         id="path214" />
      <path
         d="m 8250.41,12840 c 0,0 912.53,-1172.3 975.71,-2388.4 C 9289.29,9235.5 7373.4,9382.2 7373.4,9382.2 l -29.63,423.6 c 0,0 1815.26,-105.5 1579.63,862.2 -319.16,1310.8 -1059.27,2123.6 -1059.27,2123.6 l 386.28,48.4"
         style="fill:#f99746;fill-opacity:1;fill-rule:nonzero;stroke:none"
         id="path216" />
      <path
         d="m 8457.95,10002.5 c 0,0 311.48,78.3 391.86,0 80.38,-78.3 228.44,-230.5 152.29,-302.5 -76.14,-71.9 -236.9,65.6 -334.2,48.7 -97.29,-16.9 -205.01,19 -268.27,67.7 -63.26,48.6 58.32,186.1 58.32,186.1"
         style="fill:#ffb27d;fill-opacity:1;fill-rule:nonzero;stroke:none"
         id="path218" />
      <path
         d="m 7945.18,12545.8 c 0,0 -1317.61,-1700.1 -1248.64,-2075.8 80.38,-437.9 1703.09,-653.6 1703.09,-653.6 l 58.32,186.1 c 0,0 -1109.51,528 -1033.78,628.7 118.36,157.3 635.42,666.7 824.92,900.6 61.69,76.1 -187.47,1087.2 -303.91,1014"
         style="fill:#ffb27d;fill-opacity:1;fill-rule:nonzero;stroke:none"
         id="path220" />
      <path
         d="m 8004.38,12618.4 c 0,0 -93.72,0.6 -444.84,-519.7 l -435.73,-626.1 c 0,0 106.82,-440.1 589.08,-572.2 0,0 569.55,499.9 629.27,699.1 84.58,282.1 -337.78,1018.9 -337.78,1018.9"
         style="fill:#f9ddbf;fill-opacity:1;fill-rule:nonzero;stroke:none"
         id="path222" />
      <path
         d="M 1428.78,2434.5 H 28318.6 c 19,0 34.5,15.5 34.5,34.4 v 22.2 c 0,18.9 -15.5,34.5 -34.5,34.5 H 1428.78 c -18.96,0 -34.47,-15.6 -34.47,-34.5 v -22.2 c 0,-18.9 15.51,-34.4 34.47,-34.4"
         style="fill:#2e3552;fill-opacity:1;fill-rule:nonzero;stroke:none"
         id="path224" />
      <path
         d="m 4473.53,5497.8 c 0,0 404.39,27.1 677.78,-97.8 l -12.02,-48.4 c 0,0 -249.73,107.5 -672.81,85.3 l 7.05,60.9"
         style="fill:#2e3552;fill-opacity:1;fill-rule:nonzero;stroke:none"
         id="path226" />
    </g>
  </g>
</svg>
